<svg width="29" height="29" viewBox="0 0 29 29" fill="none" xmlns="http://www.w3.org/2000/svg">
<path d="M12.0864 17.7337C12.0861 17.7088 12.086 17.6839 12.086 17.6589C12.086 14.6281 14.5226 12.0786 17.829 11.3359C17.3898 8.55405 14.4533 6.28385 10.7568 6.28385C6.74437 6.28385 3.6276 8.95849 3.6276 12.0589C3.6276 13.2303 4.063 14.3556 4.88408 15.32C4.92272 15.3654 4.98511 15.4331 5.06847 15.5188C5.78374 16.2547 6.20874 17.2141 6.27927 18.2229C7.14094 17.7248 8.14903 17.5363 9.13439 17.6896C9.33478 17.7208 9.49875 17.7446 9.62392 17.7609C9.99568 17.8094 10.374 17.8339 10.7568 17.8339C11.2126 17.8339 11.6569 17.7995 12.0864 17.7337ZM12.6383 20.0915C12.03 20.1958 11.4008 20.2506 10.7568 20.2506C10.2655 20.2506 9.7829 20.2188 9.31162 20.1574C9.16436 20.1382 8.98139 20.1116 8.76272 20.0775C8.31104 20.0072 7.84877 20.0977 7.45841 20.333L5.15681 21.7198C4.98038 21.8286 4.77302 21.8783 4.56569 21.8613C4.03501 21.8175 3.64065 21.3571 3.68487 20.8328L3.86638 18.6809C3.91236 18.136 3.71903 17.5978 3.33559 17.2033C3.21779 17.0821 3.12061 16.9766 3.04403 16.8867C1.89133 15.5327 1.21094 13.864 1.21094 12.0589C1.21094 7.53474 5.48475 3.86719 10.7568 3.86719C15.6615 3.86719 19.7022 7.04153 20.2415 11.1268C24.3161 11.3122 27.5526 14.1659 27.5526 17.6589C27.5526 19.1005 27.0014 20.4331 26.0676 21.5142C26.0055 21.5861 25.9268 21.6703 25.8314 21.7671C25.5207 22.0821 25.3641 22.5119 25.4013 22.9472L25.5484 24.6657C25.5843 25.0844 25.2648 25.4519 24.8348 25.4869C24.6669 25.5005 24.4989 25.4609 24.356 25.3739L22.4914 24.2665C22.1751 24.0786 21.8006 24.0063 21.4347 24.0625C21.2576 24.0897 21.1093 24.1108 20.99 24.1262C20.6082 24.1752 20.2172 24.2007 19.8193 24.2007C16.5645 24.2007 13.7794 22.4999 12.6383 20.0915ZM21.0682 21.6737C21.7537 21.5686 22.4514 21.643 23.0933 21.8848C23.2609 21.2072 23.609 20.579 24.1106 20.0703C24.1714 20.0088 24.215 19.962 24.2387 19.9346C24.8287 19.2515 25.136 18.4686 25.136 17.6589C25.136 15.4787 22.8369 13.5339 19.8193 13.5339C16.8017 13.5339 14.5026 15.4787 14.5026 17.6589C14.5026 19.8391 16.8017 21.7841 19.8193 21.7841C20.111 21.7841 20.3992 21.7656 20.682 21.7292C20.7796 21.7167 20.9091 21.6981 21.0682 21.6737Z" fill="#BF56FF"/>
</svg>
