<svg width="29" height="29" viewBox="0 0 29 29" fill="none" xmlns="http://www.w3.org/2000/svg">
<path d="M13.2917 18.1243H15.7083V20.541H13.2917V18.1243ZM15.7083 16.1368V16.916H13.2917V15.1035C13.2917 14.4362 13.8326 13.8952 14.5 13.8952C15.501 13.8952 16.3125 13.0837 16.3125 12.0827C16.3125 11.0817 15.501 10.2702 14.5 10.2702C13.6207 10.2702 12.8876 10.8964 12.7223 11.7272L10.3522 11.2531C10.7377 9.31462 12.4483 7.85352 14.5 7.85352C16.8357 7.85352 18.7292 9.74697 18.7292 12.0827C18.7292 13.9985 17.4552 15.6168 15.7083 16.1368ZM18.125 4.83268H6.04167V24.166H22.9583V9.66602H18.125V4.83268ZM3.625 3.61444C3.625 2.95258 4.16572 2.41602 4.83152 2.41602H19.3333L25.3746 8.45768L25.375 25.3653C25.375 26.0376 24.8374 26.5827 24.1746 26.5827H4.82536C4.16242 26.5827 3.625 26.0325 3.625 25.3843V3.61444Z" fill="#BF56FF"/>
</svg>
