<svg width="24" height="24" viewBox="0 0 24 24" fill="none" xmlns="http://www.w3.org/2000/svg">
<path fill-rule="evenodd" clip-rule="evenodd" d="M8.79948 0C7.47279 0.000978593 6.39909 1.07547 6.40007 2.39951C6.39909 3.72355 7.47377 4.79804 8.80046 4.79902H11.2009L11.2009 2.40049C11.2018 1.07645 10.1271 0.00195719 8.79948 0C8.80046 0 8.80046 0 8.79948 0ZM8.79948 6.4L2.4004 6.4C1.07371 6.40098 -0.000977493 7.47547 3.126e-06 8.79951C-0.00195791 10.1235 1.07273 11.198 2.39941 11.2H8.79948C10.1262 11.199 11.2009 10.1245 11.1999 8.80049C11.2009 7.47547 10.1262 6.40098 8.79948 6.4Z" fill="#36C5F0"/>
<path fill-rule="evenodd" clip-rule="evenodd" d="M24.0002 8.79951C24.0011 7.47547 22.9265 6.40098 21.5998 6.4C20.2731 6.40098 19.1984 7.47547 19.1994 8.79951L19.1994 11.2H21.5998C22.9265 11.199 24.0011 10.1245 24.0002 8.79951ZM17.6001 8.79951L17.6001 2.39951C17.6011 1.07645 16.5274 0.00195719 15.2007 0C13.874 0.000978593 12.7993 1.07547 12.8003 2.39951L12.8003 8.79951C12.7983 10.1235 13.873 11.198 15.1997 11.2C16.5264 11.199 17.6011 10.1245 17.6001 8.79951Z" fill="#2EB67D"/>
<path fill-rule="evenodd" clip-rule="evenodd" d="M15.1997 23.9998C16.5264 23.9988 17.6011 22.9243 17.6001 21.6003C17.6011 20.2763 16.5264 19.2018 15.1997 19.2008H12.7993L12.7993 21.6003C12.7983 22.9234 13.873 23.9978 15.1997 23.9998ZM15.1997 17.5988H21.5998C22.9265 17.5978 24.0011 16.5234 24.0002 15.1993C24.0021 13.8753 22.9274 12.8008 21.6008 12.7988H15.2007C13.874 12.7998 12.7993 13.8743 12.8003 15.1983C12.7993 16.5234 13.873 17.5978 15.1997 17.5988Z" fill="#ECB22E"/>
<path fill-rule="evenodd" clip-rule="evenodd" d="M7.92156e-07 15.1993C-0.000979693 16.5234 1.07371 17.5978 2.40039 17.5988C3.72708 17.5978 4.80177 16.5234 4.80078 15.1993L4.80078 12.7998H2.40039C1.07371 12.8008 -0.000979827 13.8753 7.92156e-07 15.1993ZM6.40007 15.1993L6.40007 21.5993C6.39811 22.9234 7.47279 23.9978 8.79948 23.9998C10.1262 23.9988 11.2009 22.9243 11.1999 21.6003L11.1999 15.2013C11.2018 13.8772 10.1271 12.8027 8.80046 12.8008C7.47279 12.8008 6.39909 13.8753 6.40007 15.1993Z" fill="#E01E5A"/>
</svg>
