<svg width="24" height="24" viewBox="0 0 24 24" fill="none" xmlns="http://www.w3.org/2000/svg">
<g clip-path="url(#clip0_262_225)">
<path d="M12.0003 24C5.35019 24 -0.0498097 18.6998 0.000346591 12C0.0505028 5.30016 5.10035 0 12.0003 0C18.9008 0 24.0003 5.4 24.0003 12C24.0003 18.6 18.6505 24 12.0003 24ZM15.5502 22.1498L12.1503 12.9998L8.95019 22.35C11.3005 22.9003 12.9003 23.0498 15.5502 22.1498ZM7.2505 21.6502L2.1505 7.70016C1.45019 9.20016 1.30066 10.4503 1.20035 12C1.2505 16.0997 3.55019 19.8497 7.2505 21.6502ZM22.7507 12C22.8003 9.35016 21.6008 7.25016 21.5005 6.95016C21.6008 9.00047 21.3003 10.05 20.9507 11.2003L17.4505 21.2503C21.8507 18.6 22.7 14.6498 22.8003 12H22.7507ZM11.6507 11.55L9.9505 6.9L8.70035 6.80016C8.20066 6.45 8.50019 5.90016 8.85035 5.90016C11.1003 6.05016 12.35 6.05016 14.6005 5.90016C15.1508 5.90016 15.3003 6.70031 14.6502 6.80016L13.4502 6.9L17.3497 18.3998L19.1994 12.0998C19.2997 9.35016 18.5493 9.05016 17.5494 7.05C16.7493 5.49984 17.5996 3.99984 19.1497 3.95016C17.8991 2.75016 15.3496 1.25016 11.9994 1.2C8.64925 1.14984 5.09941 2.85 2.99941 6.05016L6.69972 5.95031C7.14972 6.15047 6.94956 6.80016 6.69972 6.85031L5.39988 6.95016L9.29988 18.6502L11.6507 11.55Z" fill="#21759B"/>
</g>
<defs>
<clipPath id="clip0_262_225">
<rect width="24" height="24" fill="white"/>
</clipPath>
</defs>
</svg>
